<?xml version="1.0" encoding="utf-8"?>
<!-- Generator: Adobe Illustrator 18.1.1, SVG Export Plug-In . SVG Version: 6.00 Build 0)  -->
<svg version="1.1" id="Calque_1" xmlns="http://www.w3.org/2000/svg" xmlns:xlink="http://www.w3.org/1999/xlink" x="0px" y="0px"
	 viewBox="0 0 612 792" enable-background="new 0 0 612 792" xml:space="preserve">
<g>
	<path fill="transparent" d="M309,675.5c-95.5,0-191,0-286.5,0c-1.8,0-2.3-0.3-2.3-2.3c0.1-174.8,0.1-349.6,0-524.4
		c0-2.1,0.5-2.4,2.5-2.4c190.9,0.1,381.8,0.1,572.7,0c1.9,0,2.5,0.3,2.5,2.4c-0.1,174.7-0.1,349.5,0,524.2c0,2.2-0.5,2.5-2.6,2.5
		C499.8,675.5,404.4,675.5,309,675.5z M317.6,397.3c0-68.5,0-137,0-205.5c0-4.7,0-4.5,4.7-4.4c8.3,0.2,16.5,1.3,24.7,2.5
		c13.8,1.9,27.4,5,40.7,9.2c18.9,5.9,37,13.8,54.1,23.8c18.1,10.7,34.7,23.4,49.6,38.1c6,5.9,11.5,12.2,16.8,18.6
		c8.8,10.7,16.5,22.1,23.1,34.2c8.3,15.3,14.7,31.4,19.1,48.3c3.9,15,5.9,30.1,6.7,45.5c0.5,10.4-0.2,20.8-1.5,31.1
		c-3.4,25.8-12,49.9-24.9,72.5c-13.6,23.8-30.9,44.6-51.3,62.8c-16.1,14.4-33.8,26.7-52.9,36.8c-12.6,6.7-25.5,12.4-39.1,16.6
		c-15.1,4.7-30.6,8-46.5,8c-1.7,0-1.8,0.8-1.8,2.1c0,11.4,0,22.8,0,34.2c0,1.7,0.5,2.1,2.1,2.1c4.7,0,9.4-0.5,14.1-0.9
		c12.5-1,24.7-3.7,36.7-7.3c20.1-6.1,39.2-14.7,57.3-25.3c15.5-9.1,30.1-19.4,44-30.8c13.9-11.3,26.9-23.6,38.7-37.1
		c17.9-20.4,32.8-42.8,43.9-67.6c12-26.9,18.6-55,19.6-84.5c0.3-7.8-0.4-15.6-0.8-23.4c-0.4-8-1.4-16-2.7-23.9
		c-2.1-12.7-5.2-25.2-9.4-37.4c-5-14.7-11.2-28.8-18.8-42.4c-10.2-18.3-22.4-35.2-36.7-50.5c-7.4-7.9-15.1-15.5-23.3-22.5
		c-8.8-7.5-17.9-14.5-27.5-21c-11.8-8-24.2-15-37.1-21.2c-10.7-5.1-21.5-9.5-32.7-13.3c-14.6-5-29.5-8.8-44.7-11.6
		c-14.6-2.7-29.3-4.3-44.1-4.8c-13.2-0.4-26.5-0.2-39.7-0.2c-4.2,0-3.6-0.5-3.6,3.6c0,136.4,0,272.8,0,409.2c0,0.7-0.1,1.5,0,2.2
		c0.1,1.2-0.5,1.6-1.6,1.6c-2.4-0.1-4.8,0.1-7.2-0.1c-9.2-1-18.4-1.8-27.5-3.4c-11.9-2-23.6-4.6-35.1-8
		c-11.2-3.3-22.1-7.4-32.8-12.1c-11.4-5-22.3-10.9-32.7-17.7c-8.3-5.4-16.2-11.3-23.6-17.9c-7.3-6.5-14.1-13.4-20.2-20.9
		c-7.4-9.3-13.8-19.3-18.7-30.2c-7.7-17.3-11.8-35.3-10.7-54.4c0.4-6.6,1.4-13,2.9-19.4c5.9-24.5,18.8-45,36.1-62.9
		c22.4-23.2,48.9-40.2,78.7-52.2c21.9-8.8,44.6-14.4,68.3-14.7c1.8,0,2-0.7,2-2.2c0-12.7-0.1-25.3,0-38c0-1.8-0.4-2.6-2.3-2.4
		c-3.6,0.2-7.1,0.3-10.7,0.5c-7.9,0.4-15.7,1.4-23.5,2.8c-24.6,4.4-47.9,12.4-70.2,23.6c-28.9,14.4-54.7,33-76.6,56.8
		c-11.1,12-20.7,25.2-28.5,39.6c-7.3,13.6-12.7,28-15.9,43.2c-2,9.6-3.2,19.3-3.2,29.1c0,4.1,0.1,8.3,0.4,12.4
		c0.4,6.2,1.1,12.4,2.3,18.4c3.3,17,9.1,33.2,17.4,48.5c7.9,14.6,17.8,27.8,29,40c7.9,8.6,16.7,16.2,25.8,23.4
		c12.3,9.7,25.4,18.1,39.2,25.4c15.6,8.3,31.8,15,48.6,20.3c11.6,3.7,23.4,6.8,35.4,9.1c8.7,1.7,17.4,3,26.1,4.1
		c8.5,1.1,17,1.9,25.4,2.2c13.2,0.5,26.5,0.2,39.7,0.2c6.4,0,6.4,0,6.4-6.4C317.6,533.5,317.6,465.4,317.6,397.3z"/>
	<path fill='white' d="M317.6,397.3c0,68.1,0,136.2,0,204.2c0,6.5,0,6.5-6.4,6.4c-13.2,0-26.5,0.3-39.7-0.2
		c-8.5-0.3-17-1.1-25.4-2.2c-8.8-1.1-17.5-2.4-26.1-4.1c-12-2.3-23.8-5.4-35.4-9.1c-16.8-5.4-33-12.1-48.6-20.3
		c-13.8-7.3-27-15.7-39.2-25.4c-9.1-7.2-17.9-14.8-25.8-23.4c-11.2-12.2-21.1-25.4-29-40c-8.3-15.3-14.1-31.5-17.4-48.5
		c-1.2-6.1-1.9-12.2-2.3-18.4c-0.3-4.2-0.4-8.3-0.4-12.4c0.1-9.8,1.2-19.5,3.2-29.1c3.2-15.2,8.6-29.5,15.9-43.2
		c7.7-14.4,17.4-27.6,28.5-39.6c21.9-23.8,47.7-42.4,76.6-56.8c22.3-11.1,45.7-19.1,70.2-23.6c7.8-1.4,15.6-2.4,23.5-2.8
		c3.6-0.2,7.1-0.2,10.7-0.5c2-0.1,2.3,0.6,2.3,2.4c-0.1,12.7-0.1,25.3,0,38c0,1.5-0.2,2.2-2,2.2c-23.7,0.4-46.4,5.9-68.3,14.7
		c-29.8,12-56.4,29-78.7,52.2c-17.3,17.9-30.1,38.5-36.1,62.9c-1.5,6.4-2.6,12.8-2.9,19.4c-1.1,19.1,2.9,37.1,10.7,54.4
		c4.9,10.9,11.2,20.9,18.7,30.2c6.1,7.6,12.9,14.5,20.2,20.9c7.4,6.6,15.3,12.6,23.6,17.9c10.4,6.8,21.3,12.7,32.7,17.7
		c10.7,4.7,21.6,8.8,32.8,12.1c11.5,3.4,23.3,6,35.1,8c9.1,1.6,18.3,2.4,27.5,3.4c2.4,0.3,4.8,0.1,7.2,0.1c1.1,0,1.7-0.4,1.6-1.6
		c-0.1-0.7,0-1.5,0-2.2c0-136.4,0-272.8,0-409.2c0-4.1-0.6-3.6,3.6-3.6c13.2,0,26.5-0.3,39.7,0.2c14.8,0.5,29.5,2.1,44.1,4.8
		c15.2,2.8,30.1,6.5,44.7,11.6c11.1,3.8,22,8.3,32.7,13.3c12.9,6.1,25.2,13.2,37.1,21.2c9.6,6.4,18.7,13.4,27.5,21
		c8.2,7,15.9,14.6,23.3,22.5c14.3,15.3,26.5,32.2,36.7,50.5c7.5,13.6,13.8,27.7,18.8,42.4c4.1,12.2,7.3,24.7,9.4,37.4
		c1.3,7.9,2.3,15.8,2.7,23.9c0.4,7.8,1,15.6,0.8,23.4c-1,29.5-7.6,57.6-19.6,84.5c-11.1,24.8-26,47.2-43.9,67.6
		c-11.9,13.5-24.8,25.8-38.7,37.1c-13.9,11.3-28.5,21.7-44,30.8c-18.1,10.6-37.2,19.3-57.3,25.3c-12,3.6-24.2,6.3-36.7,7.3
		c-4.7,0.4-9.4,0.9-14.1,0.9c-1.6,0-2.1-0.5-2.1-2.1c0.1-11.4,0-22.8,0-34.2c0-1.3,0.1-2.1,1.8-2.1c16,0,31.4-3.3,46.5-8
		c13.6-4.2,26.6-9.9,39.1-16.6c19.1-10.1,36.8-22.4,52.9-36.8c20.4-18.2,37.7-39,51.3-62.8c12.9-22.6,21.4-46.7,24.9-72.5
		c1.4-10.3,2.1-20.7,1.5-31.1c-0.8-15.4-2.8-30.5-6.7-45.5c-4.4-16.9-10.8-33-19.1-48.3c-6.6-12.1-14.3-23.6-23.1-34.2
		c-5.4-6.5-10.9-12.8-16.8-18.6c-15-14.7-31.5-27.4-49.6-38.1c-17.1-10.1-35.2-17.9-54.1-23.8c-13.3-4.2-26.9-7.3-40.7-9.2
		c-8.2-1.1-16.4-2.3-24.7-2.5c-4.7-0.1-4.7-0.2-4.7,4.4C317.6,260.4,317.6,328.9,317.6,397.3z"/>
</g>
</svg>
